%TF.GenerationSoftware,KiCad,Pcbnew,10.0.3*%
%TF.CreationDate,2026-05-24T12:16:12+03:00*%
%TF.ProjectId,DSO_Final,44534f5f-4669-46e6-916c-2e6b69636164,rev?*%
%TF.SameCoordinates,Original*%
%TF.FileFunction,Legend,Top*%
%TF.FilePolarity,Positive*%
%FSLAX46Y46*%
G04 Gerber Fmt 4.6, Leading zero omitted, Abs format (unit mm)*
G04 Created by KiCad (PCBNEW 10.0.3) date 2026-05-24 12:16:12*
%MOMM*%
%LPD*%
G01*
G04 APERTURE LIST*
%ADD10C,0.150000*%
%ADD11C,0.120000*%
G04 APERTURE END LIST*
D10*
X187173333Y-77084819D02*
X186840000Y-76608628D01*
X186601905Y-77084819D02*
X186601905Y-76084819D01*
X186601905Y-76084819D02*
X186982857Y-76084819D01*
X186982857Y-76084819D02*
X187078095Y-76132438D01*
X187078095Y-76132438D02*
X187125714Y-76180057D01*
X187125714Y-76180057D02*
X187173333Y-76275295D01*
X187173333Y-76275295D02*
X187173333Y-76418152D01*
X187173333Y-76418152D02*
X187125714Y-76513390D01*
X187125714Y-76513390D02*
X187078095Y-76561009D01*
X187078095Y-76561009D02*
X186982857Y-76608628D01*
X186982857Y-76608628D02*
X186601905Y-76608628D01*
X188125714Y-77084819D02*
X187554286Y-77084819D01*
X187840000Y-77084819D02*
X187840000Y-76084819D01*
X187840000Y-76084819D02*
X187744762Y-76227676D01*
X187744762Y-76227676D02*
X187649524Y-76322914D01*
X187649524Y-76322914D02*
X187554286Y-76370533D01*
X211926666Y-60534819D02*
X211926666Y-61249104D01*
X211926666Y-61249104D02*
X211879047Y-61391961D01*
X211879047Y-61391961D02*
X211783809Y-61487200D01*
X211783809Y-61487200D02*
X211640952Y-61534819D01*
X211640952Y-61534819D02*
X211545714Y-61534819D01*
X212831428Y-60868152D02*
X212831428Y-61534819D01*
X212593333Y-60487200D02*
X212355238Y-61201485D01*
X212355238Y-61201485D02*
X212974285Y-61201485D01*
X239815467Y-101988400D02*
X239958324Y-102036019D01*
X239958324Y-102036019D02*
X240196419Y-102036019D01*
X240196419Y-102036019D02*
X240291657Y-101988400D01*
X240291657Y-101988400D02*
X240339276Y-101940780D01*
X240339276Y-101940780D02*
X240386895Y-101845542D01*
X240386895Y-101845542D02*
X240386895Y-101750304D01*
X240386895Y-101750304D02*
X240339276Y-101655066D01*
X240339276Y-101655066D02*
X240291657Y-101607447D01*
X240291657Y-101607447D02*
X240196419Y-101559828D01*
X240196419Y-101559828D02*
X240005943Y-101512209D01*
X240005943Y-101512209D02*
X239910705Y-101464590D01*
X239910705Y-101464590D02*
X239863086Y-101416971D01*
X239863086Y-101416971D02*
X239815467Y-101321733D01*
X239815467Y-101321733D02*
X239815467Y-101226495D01*
X239815467Y-101226495D02*
X239863086Y-101131257D01*
X239863086Y-101131257D02*
X239910705Y-101083638D01*
X239910705Y-101083638D02*
X240005943Y-101036019D01*
X240005943Y-101036019D02*
X240244038Y-101036019D01*
X240244038Y-101036019D02*
X240386895Y-101083638D01*
X240720229Y-101036019D02*
X240958324Y-102036019D01*
X240958324Y-102036019D02*
X241148800Y-101321733D01*
X241148800Y-101321733D02*
X241339276Y-102036019D01*
X241339276Y-102036019D02*
X241577372Y-101036019D01*
X242386895Y-101369352D02*
X242386895Y-102036019D01*
X242148800Y-100988400D02*
X241910705Y-101702685D01*
X241910705Y-101702685D02*
X242529752Y-101702685D01*
X186833333Y-86084819D02*
X186500000Y-85608628D01*
X186261905Y-86084819D02*
X186261905Y-85084819D01*
X186261905Y-85084819D02*
X186642857Y-85084819D01*
X186642857Y-85084819D02*
X186738095Y-85132438D01*
X186738095Y-85132438D02*
X186785714Y-85180057D01*
X186785714Y-85180057D02*
X186833333Y-85275295D01*
X186833333Y-85275295D02*
X186833333Y-85418152D01*
X186833333Y-85418152D02*
X186785714Y-85513390D01*
X186785714Y-85513390D02*
X186738095Y-85561009D01*
X186738095Y-85561009D02*
X186642857Y-85608628D01*
X186642857Y-85608628D02*
X186261905Y-85608628D01*
X187166667Y-85084819D02*
X187785714Y-85084819D01*
X187785714Y-85084819D02*
X187452381Y-85465771D01*
X187452381Y-85465771D02*
X187595238Y-85465771D01*
X187595238Y-85465771D02*
X187690476Y-85513390D01*
X187690476Y-85513390D02*
X187738095Y-85561009D01*
X187738095Y-85561009D02*
X187785714Y-85656247D01*
X187785714Y-85656247D02*
X187785714Y-85894342D01*
X187785714Y-85894342D02*
X187738095Y-85989580D01*
X187738095Y-85989580D02*
X187690476Y-86037200D01*
X187690476Y-86037200D02*
X187595238Y-86084819D01*
X187595238Y-86084819D02*
X187309524Y-86084819D01*
X187309524Y-86084819D02*
X187214286Y-86037200D01*
X187214286Y-86037200D02*
X187166667Y-85989580D01*
X190420833Y-95584819D02*
X190087500Y-95108628D01*
X189849405Y-95584819D02*
X189849405Y-94584819D01*
X189849405Y-94584819D02*
X190230357Y-94584819D01*
X190230357Y-94584819D02*
X190325595Y-94632438D01*
X190325595Y-94632438D02*
X190373214Y-94680057D01*
X190373214Y-94680057D02*
X190420833Y-94775295D01*
X190420833Y-94775295D02*
X190420833Y-94918152D01*
X190420833Y-94918152D02*
X190373214Y-95013390D01*
X190373214Y-95013390D02*
X190325595Y-95061009D01*
X190325595Y-95061009D02*
X190230357Y-95108628D01*
X190230357Y-95108628D02*
X189849405Y-95108628D01*
X191325595Y-94584819D02*
X190849405Y-94584819D01*
X190849405Y-94584819D02*
X190801786Y-95061009D01*
X190801786Y-95061009D02*
X190849405Y-95013390D01*
X190849405Y-95013390D02*
X190944643Y-94965771D01*
X190944643Y-94965771D02*
X191182738Y-94965771D01*
X191182738Y-94965771D02*
X191277976Y-95013390D01*
X191277976Y-95013390D02*
X191325595Y-95061009D01*
X191325595Y-95061009D02*
X191373214Y-95156247D01*
X191373214Y-95156247D02*
X191373214Y-95394342D01*
X191373214Y-95394342D02*
X191325595Y-95489580D01*
X191325595Y-95489580D02*
X191277976Y-95537200D01*
X191277976Y-95537200D02*
X191182738Y-95584819D01*
X191182738Y-95584819D02*
X190944643Y-95584819D01*
X190944643Y-95584819D02*
X190849405Y-95537200D01*
X190849405Y-95537200D02*
X190801786Y-95489580D01*
X190583333Y-101609580D02*
X190535714Y-101657200D01*
X190535714Y-101657200D02*
X190392857Y-101704819D01*
X190392857Y-101704819D02*
X190297619Y-101704819D01*
X190297619Y-101704819D02*
X190154762Y-101657200D01*
X190154762Y-101657200D02*
X190059524Y-101561961D01*
X190059524Y-101561961D02*
X190011905Y-101466723D01*
X190011905Y-101466723D02*
X189964286Y-101276247D01*
X189964286Y-101276247D02*
X189964286Y-101133390D01*
X189964286Y-101133390D02*
X190011905Y-100942914D01*
X190011905Y-100942914D02*
X190059524Y-100847676D01*
X190059524Y-100847676D02*
X190154762Y-100752438D01*
X190154762Y-100752438D02*
X190297619Y-100704819D01*
X190297619Y-100704819D02*
X190392857Y-100704819D01*
X190392857Y-100704819D02*
X190535714Y-100752438D01*
X190535714Y-100752438D02*
X190583333Y-100800057D01*
X190964286Y-100800057D02*
X191011905Y-100752438D01*
X191011905Y-100752438D02*
X191107143Y-100704819D01*
X191107143Y-100704819D02*
X191345238Y-100704819D01*
X191345238Y-100704819D02*
X191440476Y-100752438D01*
X191440476Y-100752438D02*
X191488095Y-100800057D01*
X191488095Y-100800057D02*
X191535714Y-100895295D01*
X191535714Y-100895295D02*
X191535714Y-100990533D01*
X191535714Y-100990533D02*
X191488095Y-101133390D01*
X191488095Y-101133390D02*
X190916667Y-101704819D01*
X190916667Y-101704819D02*
X191535714Y-101704819D01*
X206324761Y-91990057D02*
X206229523Y-91942438D01*
X206229523Y-91942438D02*
X206134285Y-91847200D01*
X206134285Y-91847200D02*
X205991428Y-91704342D01*
X205991428Y-91704342D02*
X205896190Y-91656723D01*
X205896190Y-91656723D02*
X205800952Y-91656723D01*
X205848571Y-91894819D02*
X205753333Y-91847200D01*
X205753333Y-91847200D02*
X205658095Y-91751961D01*
X205658095Y-91751961D02*
X205610476Y-91561485D01*
X205610476Y-91561485D02*
X205610476Y-91228152D01*
X205610476Y-91228152D02*
X205658095Y-91037676D01*
X205658095Y-91037676D02*
X205753333Y-90942438D01*
X205753333Y-90942438D02*
X205848571Y-90894819D01*
X205848571Y-90894819D02*
X206039047Y-90894819D01*
X206039047Y-90894819D02*
X206134285Y-90942438D01*
X206134285Y-90942438D02*
X206229523Y-91037676D01*
X206229523Y-91037676D02*
X206277142Y-91228152D01*
X206277142Y-91228152D02*
X206277142Y-91561485D01*
X206277142Y-91561485D02*
X206229523Y-91751961D01*
X206229523Y-91751961D02*
X206134285Y-91847200D01*
X206134285Y-91847200D02*
X206039047Y-91894819D01*
X206039047Y-91894819D02*
X205848571Y-91894819D01*
X206658095Y-90990057D02*
X206705714Y-90942438D01*
X206705714Y-90942438D02*
X206800952Y-90894819D01*
X206800952Y-90894819D02*
X207039047Y-90894819D01*
X207039047Y-90894819D02*
X207134285Y-90942438D01*
X207134285Y-90942438D02*
X207181904Y-90990057D01*
X207181904Y-90990057D02*
X207229523Y-91085295D01*
X207229523Y-91085295D02*
X207229523Y-91180533D01*
X207229523Y-91180533D02*
X207181904Y-91323390D01*
X207181904Y-91323390D02*
X206610476Y-91894819D01*
X206610476Y-91894819D02*
X207229523Y-91894819D01*
X199833333Y-104359580D02*
X199785714Y-104407200D01*
X199785714Y-104407200D02*
X199642857Y-104454819D01*
X199642857Y-104454819D02*
X199547619Y-104454819D01*
X199547619Y-104454819D02*
X199404762Y-104407200D01*
X199404762Y-104407200D02*
X199309524Y-104311961D01*
X199309524Y-104311961D02*
X199261905Y-104216723D01*
X199261905Y-104216723D02*
X199214286Y-104026247D01*
X199214286Y-104026247D02*
X199214286Y-103883390D01*
X199214286Y-103883390D02*
X199261905Y-103692914D01*
X199261905Y-103692914D02*
X199309524Y-103597676D01*
X199309524Y-103597676D02*
X199404762Y-103502438D01*
X199404762Y-103502438D02*
X199547619Y-103454819D01*
X199547619Y-103454819D02*
X199642857Y-103454819D01*
X199642857Y-103454819D02*
X199785714Y-103502438D01*
X199785714Y-103502438D02*
X199833333Y-103550057D01*
X200690476Y-103788152D02*
X200690476Y-104454819D01*
X200452381Y-103407200D02*
X200214286Y-104121485D01*
X200214286Y-104121485D02*
X200833333Y-104121485D01*
X199583333Y-109109580D02*
X199535714Y-109157200D01*
X199535714Y-109157200D02*
X199392857Y-109204819D01*
X199392857Y-109204819D02*
X199297619Y-109204819D01*
X199297619Y-109204819D02*
X199154762Y-109157200D01*
X199154762Y-109157200D02*
X199059524Y-109061961D01*
X199059524Y-109061961D02*
X199011905Y-108966723D01*
X199011905Y-108966723D02*
X198964286Y-108776247D01*
X198964286Y-108776247D02*
X198964286Y-108633390D01*
X198964286Y-108633390D02*
X199011905Y-108442914D01*
X199011905Y-108442914D02*
X199059524Y-108347676D01*
X199059524Y-108347676D02*
X199154762Y-108252438D01*
X199154762Y-108252438D02*
X199297619Y-108204819D01*
X199297619Y-108204819D02*
X199392857Y-108204819D01*
X199392857Y-108204819D02*
X199535714Y-108252438D01*
X199535714Y-108252438D02*
X199583333Y-108300057D01*
X200488095Y-108204819D02*
X200011905Y-108204819D01*
X200011905Y-108204819D02*
X199964286Y-108681009D01*
X199964286Y-108681009D02*
X200011905Y-108633390D01*
X200011905Y-108633390D02*
X200107143Y-108585771D01*
X200107143Y-108585771D02*
X200345238Y-108585771D01*
X200345238Y-108585771D02*
X200440476Y-108633390D01*
X200440476Y-108633390D02*
X200488095Y-108681009D01*
X200488095Y-108681009D02*
X200535714Y-108776247D01*
X200535714Y-108776247D02*
X200535714Y-109014342D01*
X200535714Y-109014342D02*
X200488095Y-109109580D01*
X200488095Y-109109580D02*
X200440476Y-109157200D01*
X200440476Y-109157200D02*
X200345238Y-109204819D01*
X200345238Y-109204819D02*
X200107143Y-109204819D01*
X200107143Y-109204819D02*
X200011905Y-109157200D01*
X200011905Y-109157200D02*
X199964286Y-109109580D01*
X239815467Y-76965200D02*
X239958324Y-77012819D01*
X239958324Y-77012819D02*
X240196419Y-77012819D01*
X240196419Y-77012819D02*
X240291657Y-76965200D01*
X240291657Y-76965200D02*
X240339276Y-76917580D01*
X240339276Y-76917580D02*
X240386895Y-76822342D01*
X240386895Y-76822342D02*
X240386895Y-76727104D01*
X240386895Y-76727104D02*
X240339276Y-76631866D01*
X240339276Y-76631866D02*
X240291657Y-76584247D01*
X240291657Y-76584247D02*
X240196419Y-76536628D01*
X240196419Y-76536628D02*
X240005943Y-76489009D01*
X240005943Y-76489009D02*
X239910705Y-76441390D01*
X239910705Y-76441390D02*
X239863086Y-76393771D01*
X239863086Y-76393771D02*
X239815467Y-76298533D01*
X239815467Y-76298533D02*
X239815467Y-76203295D01*
X239815467Y-76203295D02*
X239863086Y-76108057D01*
X239863086Y-76108057D02*
X239910705Y-76060438D01*
X239910705Y-76060438D02*
X240005943Y-76012819D01*
X240005943Y-76012819D02*
X240244038Y-76012819D01*
X240244038Y-76012819D02*
X240386895Y-76060438D01*
X240720229Y-76012819D02*
X240958324Y-77012819D01*
X240958324Y-77012819D02*
X241148800Y-76298533D01*
X241148800Y-76298533D02*
X241339276Y-77012819D01*
X241339276Y-77012819D02*
X241577372Y-76012819D01*
X241910705Y-76108057D02*
X241958324Y-76060438D01*
X241958324Y-76060438D02*
X242053562Y-76012819D01*
X242053562Y-76012819D02*
X242291657Y-76012819D01*
X242291657Y-76012819D02*
X242386895Y-76060438D01*
X242386895Y-76060438D02*
X242434514Y-76108057D01*
X242434514Y-76108057D02*
X242482133Y-76203295D01*
X242482133Y-76203295D02*
X242482133Y-76298533D01*
X242482133Y-76298533D02*
X242434514Y-76441390D01*
X242434514Y-76441390D02*
X241863086Y-77012819D01*
X241863086Y-77012819D02*
X242482133Y-77012819D01*
X196666666Y-73754819D02*
X196666666Y-74469104D01*
X196666666Y-74469104D02*
X196619047Y-74611961D01*
X196619047Y-74611961D02*
X196523809Y-74707200D01*
X196523809Y-74707200D02*
X196380952Y-74754819D01*
X196380952Y-74754819D02*
X196285714Y-74754819D01*
X197666666Y-74754819D02*
X197095238Y-74754819D01*
X197380952Y-74754819D02*
X197380952Y-73754819D01*
X197380952Y-73754819D02*
X197285714Y-73897676D01*
X197285714Y-73897676D02*
X197190476Y-73992914D01*
X197190476Y-73992914D02*
X197095238Y-74040533D01*
X260690476Y-109804819D02*
X260690476Y-108804819D01*
X260690476Y-108804819D02*
X261023809Y-109519104D01*
X261023809Y-109519104D02*
X261357142Y-108804819D01*
X261357142Y-108804819D02*
X261357142Y-109804819D01*
X261738095Y-108804819D02*
X262357142Y-108804819D01*
X262357142Y-108804819D02*
X262023809Y-109185771D01*
X262023809Y-109185771D02*
X262166666Y-109185771D01*
X262166666Y-109185771D02*
X262261904Y-109233390D01*
X262261904Y-109233390D02*
X262309523Y-109281009D01*
X262309523Y-109281009D02*
X262357142Y-109376247D01*
X262357142Y-109376247D02*
X262357142Y-109614342D01*
X262357142Y-109614342D02*
X262309523Y-109709580D01*
X262309523Y-109709580D02*
X262261904Y-109757200D01*
X262261904Y-109757200D02*
X262166666Y-109804819D01*
X262166666Y-109804819D02*
X261880952Y-109804819D01*
X261880952Y-109804819D02*
X261785714Y-109757200D01*
X261785714Y-109757200D02*
X261738095Y-109709580D01*
X260690476Y-68954819D02*
X260690476Y-67954819D01*
X260690476Y-67954819D02*
X261023809Y-68669104D01*
X261023809Y-68669104D02*
X261357142Y-67954819D01*
X261357142Y-67954819D02*
X261357142Y-68954819D01*
X261785714Y-68050057D02*
X261833333Y-68002438D01*
X261833333Y-68002438D02*
X261928571Y-67954819D01*
X261928571Y-67954819D02*
X262166666Y-67954819D01*
X262166666Y-67954819D02*
X262261904Y-68002438D01*
X262261904Y-68002438D02*
X262309523Y-68050057D01*
X262309523Y-68050057D02*
X262357142Y-68145295D01*
X262357142Y-68145295D02*
X262357142Y-68240533D01*
X262357142Y-68240533D02*
X262309523Y-68383390D01*
X262309523Y-68383390D02*
X261738095Y-68954819D01*
X261738095Y-68954819D02*
X262357142Y-68954819D01*
X206324761Y-79490057D02*
X206229523Y-79442438D01*
X206229523Y-79442438D02*
X206134285Y-79347200D01*
X206134285Y-79347200D02*
X205991428Y-79204342D01*
X205991428Y-79204342D02*
X205896190Y-79156723D01*
X205896190Y-79156723D02*
X205800952Y-79156723D01*
X205848571Y-79394819D02*
X205753333Y-79347200D01*
X205753333Y-79347200D02*
X205658095Y-79251961D01*
X205658095Y-79251961D02*
X205610476Y-79061485D01*
X205610476Y-79061485D02*
X205610476Y-78728152D01*
X205610476Y-78728152D02*
X205658095Y-78537676D01*
X205658095Y-78537676D02*
X205753333Y-78442438D01*
X205753333Y-78442438D02*
X205848571Y-78394819D01*
X205848571Y-78394819D02*
X206039047Y-78394819D01*
X206039047Y-78394819D02*
X206134285Y-78442438D01*
X206134285Y-78442438D02*
X206229523Y-78537676D01*
X206229523Y-78537676D02*
X206277142Y-78728152D01*
X206277142Y-78728152D02*
X206277142Y-79061485D01*
X206277142Y-79061485D02*
X206229523Y-79251961D01*
X206229523Y-79251961D02*
X206134285Y-79347200D01*
X206134285Y-79347200D02*
X206039047Y-79394819D01*
X206039047Y-79394819D02*
X205848571Y-79394819D01*
X207229523Y-79394819D02*
X206658095Y-79394819D01*
X206943809Y-79394819D02*
X206943809Y-78394819D01*
X206943809Y-78394819D02*
X206848571Y-78537676D01*
X206848571Y-78537676D02*
X206753333Y-78632914D01*
X206753333Y-78632914D02*
X206658095Y-78680533D01*
X199833333Y-99359580D02*
X199785714Y-99407200D01*
X199785714Y-99407200D02*
X199642857Y-99454819D01*
X199642857Y-99454819D02*
X199547619Y-99454819D01*
X199547619Y-99454819D02*
X199404762Y-99407200D01*
X199404762Y-99407200D02*
X199309524Y-99311961D01*
X199309524Y-99311961D02*
X199261905Y-99216723D01*
X199261905Y-99216723D02*
X199214286Y-99026247D01*
X199214286Y-99026247D02*
X199214286Y-98883390D01*
X199214286Y-98883390D02*
X199261905Y-98692914D01*
X199261905Y-98692914D02*
X199309524Y-98597676D01*
X199309524Y-98597676D02*
X199404762Y-98502438D01*
X199404762Y-98502438D02*
X199547619Y-98454819D01*
X199547619Y-98454819D02*
X199642857Y-98454819D01*
X199642857Y-98454819D02*
X199785714Y-98502438D01*
X199785714Y-98502438D02*
X199833333Y-98550057D01*
X200166667Y-98454819D02*
X200785714Y-98454819D01*
X200785714Y-98454819D02*
X200452381Y-98835771D01*
X200452381Y-98835771D02*
X200595238Y-98835771D01*
X200595238Y-98835771D02*
X200690476Y-98883390D01*
X200690476Y-98883390D02*
X200738095Y-98931009D01*
X200738095Y-98931009D02*
X200785714Y-99026247D01*
X200785714Y-99026247D02*
X200785714Y-99264342D01*
X200785714Y-99264342D02*
X200738095Y-99359580D01*
X200738095Y-99359580D02*
X200690476Y-99407200D01*
X200690476Y-99407200D02*
X200595238Y-99454819D01*
X200595238Y-99454819D02*
X200309524Y-99454819D01*
X200309524Y-99454819D02*
X200214286Y-99407200D01*
X200214286Y-99407200D02*
X200166667Y-99359580D01*
X227166666Y-60534819D02*
X227166666Y-61249104D01*
X227166666Y-61249104D02*
X227119047Y-61391961D01*
X227119047Y-61391961D02*
X227023809Y-61487200D01*
X227023809Y-61487200D02*
X226880952Y-61534819D01*
X226880952Y-61534819D02*
X226785714Y-61534819D01*
X228119047Y-60534819D02*
X227642857Y-60534819D01*
X227642857Y-60534819D02*
X227595238Y-61011009D01*
X227595238Y-61011009D02*
X227642857Y-60963390D01*
X227642857Y-60963390D02*
X227738095Y-60915771D01*
X227738095Y-60915771D02*
X227976190Y-60915771D01*
X227976190Y-60915771D02*
X228071428Y-60963390D01*
X228071428Y-60963390D02*
X228119047Y-61011009D01*
X228119047Y-61011009D02*
X228166666Y-61106247D01*
X228166666Y-61106247D02*
X228166666Y-61344342D01*
X228166666Y-61344342D02*
X228119047Y-61439580D01*
X228119047Y-61439580D02*
X228071428Y-61487200D01*
X228071428Y-61487200D02*
X227976190Y-61534819D01*
X227976190Y-61534819D02*
X227738095Y-61534819D01*
X227738095Y-61534819D02*
X227642857Y-61487200D01*
X227642857Y-61487200D02*
X227595238Y-61439580D01*
X186753333Y-94824819D02*
X186420000Y-94348628D01*
X186181905Y-94824819D02*
X186181905Y-93824819D01*
X186181905Y-93824819D02*
X186562857Y-93824819D01*
X186562857Y-93824819D02*
X186658095Y-93872438D01*
X186658095Y-93872438D02*
X186705714Y-93920057D01*
X186705714Y-93920057D02*
X186753333Y-94015295D01*
X186753333Y-94015295D02*
X186753333Y-94158152D01*
X186753333Y-94158152D02*
X186705714Y-94253390D01*
X186705714Y-94253390D02*
X186658095Y-94301009D01*
X186658095Y-94301009D02*
X186562857Y-94348628D01*
X186562857Y-94348628D02*
X186181905Y-94348628D01*
X187610476Y-94158152D02*
X187610476Y-94824819D01*
X187372381Y-93777200D02*
X187134286Y-94491485D01*
X187134286Y-94491485D02*
X187753333Y-94491485D01*
X199253333Y-86359580D02*
X199205714Y-86407200D01*
X199205714Y-86407200D02*
X199062857Y-86454819D01*
X199062857Y-86454819D02*
X198967619Y-86454819D01*
X198967619Y-86454819D02*
X198824762Y-86407200D01*
X198824762Y-86407200D02*
X198729524Y-86311961D01*
X198729524Y-86311961D02*
X198681905Y-86216723D01*
X198681905Y-86216723D02*
X198634286Y-86026247D01*
X198634286Y-86026247D02*
X198634286Y-85883390D01*
X198634286Y-85883390D02*
X198681905Y-85692914D01*
X198681905Y-85692914D02*
X198729524Y-85597676D01*
X198729524Y-85597676D02*
X198824762Y-85502438D01*
X198824762Y-85502438D02*
X198967619Y-85454819D01*
X198967619Y-85454819D02*
X199062857Y-85454819D01*
X199062857Y-85454819D02*
X199205714Y-85502438D01*
X199205714Y-85502438D02*
X199253333Y-85550057D01*
X200205714Y-86454819D02*
X199634286Y-86454819D01*
X199920000Y-86454819D02*
X199920000Y-85454819D01*
X199920000Y-85454819D02*
X199824762Y-85597676D01*
X199824762Y-85597676D02*
X199729524Y-85692914D01*
X199729524Y-85692914D02*
X199634286Y-85740533D01*
X239815467Y-89258800D02*
X239958324Y-89306419D01*
X239958324Y-89306419D02*
X240196419Y-89306419D01*
X240196419Y-89306419D02*
X240291657Y-89258800D01*
X240291657Y-89258800D02*
X240339276Y-89211180D01*
X240339276Y-89211180D02*
X240386895Y-89115942D01*
X240386895Y-89115942D02*
X240386895Y-89020704D01*
X240386895Y-89020704D02*
X240339276Y-88925466D01*
X240339276Y-88925466D02*
X240291657Y-88877847D01*
X240291657Y-88877847D02*
X240196419Y-88830228D01*
X240196419Y-88830228D02*
X240005943Y-88782609D01*
X240005943Y-88782609D02*
X239910705Y-88734990D01*
X239910705Y-88734990D02*
X239863086Y-88687371D01*
X239863086Y-88687371D02*
X239815467Y-88592133D01*
X239815467Y-88592133D02*
X239815467Y-88496895D01*
X239815467Y-88496895D02*
X239863086Y-88401657D01*
X239863086Y-88401657D02*
X239910705Y-88354038D01*
X239910705Y-88354038D02*
X240005943Y-88306419D01*
X240005943Y-88306419D02*
X240244038Y-88306419D01*
X240244038Y-88306419D02*
X240386895Y-88354038D01*
X240720229Y-88306419D02*
X240958324Y-89306419D01*
X240958324Y-89306419D02*
X241148800Y-88592133D01*
X241148800Y-88592133D02*
X241339276Y-89306419D01*
X241339276Y-89306419D02*
X241577372Y-88306419D01*
X241863086Y-88306419D02*
X242482133Y-88306419D01*
X242482133Y-88306419D02*
X242148800Y-88687371D01*
X242148800Y-88687371D02*
X242291657Y-88687371D01*
X242291657Y-88687371D02*
X242386895Y-88734990D01*
X242386895Y-88734990D02*
X242434514Y-88782609D01*
X242434514Y-88782609D02*
X242482133Y-88877847D01*
X242482133Y-88877847D02*
X242482133Y-89115942D01*
X242482133Y-89115942D02*
X242434514Y-89211180D01*
X242434514Y-89211180D02*
X242386895Y-89258800D01*
X242386895Y-89258800D02*
X242291657Y-89306419D01*
X242291657Y-89306419D02*
X242005943Y-89306419D01*
X242005943Y-89306419D02*
X241910705Y-89258800D01*
X241910705Y-89258800D02*
X241863086Y-89211180D01*
X181690476Y-109804819D02*
X181690476Y-108804819D01*
X181690476Y-108804819D02*
X182023809Y-109519104D01*
X182023809Y-109519104D02*
X182357142Y-108804819D01*
X182357142Y-108804819D02*
X182357142Y-109804819D01*
X183261904Y-109138152D02*
X183261904Y-109804819D01*
X183023809Y-108757200D02*
X182785714Y-109471485D01*
X182785714Y-109471485D02*
X183404761Y-109471485D01*
X239815467Y-63808000D02*
X239958324Y-63855619D01*
X239958324Y-63855619D02*
X240196419Y-63855619D01*
X240196419Y-63855619D02*
X240291657Y-63808000D01*
X240291657Y-63808000D02*
X240339276Y-63760380D01*
X240339276Y-63760380D02*
X240386895Y-63665142D01*
X240386895Y-63665142D02*
X240386895Y-63569904D01*
X240386895Y-63569904D02*
X240339276Y-63474666D01*
X240339276Y-63474666D02*
X240291657Y-63427047D01*
X240291657Y-63427047D02*
X240196419Y-63379428D01*
X240196419Y-63379428D02*
X240005943Y-63331809D01*
X240005943Y-63331809D02*
X239910705Y-63284190D01*
X239910705Y-63284190D02*
X239863086Y-63236571D01*
X239863086Y-63236571D02*
X239815467Y-63141333D01*
X239815467Y-63141333D02*
X239815467Y-63046095D01*
X239815467Y-63046095D02*
X239863086Y-62950857D01*
X239863086Y-62950857D02*
X239910705Y-62903238D01*
X239910705Y-62903238D02*
X240005943Y-62855619D01*
X240005943Y-62855619D02*
X240244038Y-62855619D01*
X240244038Y-62855619D02*
X240386895Y-62903238D01*
X240720229Y-62855619D02*
X240958324Y-63855619D01*
X240958324Y-63855619D02*
X241148800Y-63141333D01*
X241148800Y-63141333D02*
X241339276Y-63855619D01*
X241339276Y-63855619D02*
X241577372Y-62855619D01*
X242482133Y-63855619D02*
X241910705Y-63855619D01*
X242196419Y-63855619D02*
X242196419Y-62855619D01*
X242196419Y-62855619D02*
X242101181Y-62998476D01*
X242101181Y-62998476D02*
X242005943Y-63093714D01*
X242005943Y-63093714D02*
X241910705Y-63141333D01*
X187173333Y-81584819D02*
X186840000Y-81108628D01*
X186601905Y-81584819D02*
X186601905Y-80584819D01*
X186601905Y-80584819D02*
X186982857Y-80584819D01*
X186982857Y-80584819D02*
X187078095Y-80632438D01*
X187078095Y-80632438D02*
X187125714Y-80680057D01*
X187125714Y-80680057D02*
X187173333Y-80775295D01*
X187173333Y-80775295D02*
X187173333Y-80918152D01*
X187173333Y-80918152D02*
X187125714Y-81013390D01*
X187125714Y-81013390D02*
X187078095Y-81061009D01*
X187078095Y-81061009D02*
X186982857Y-81108628D01*
X186982857Y-81108628D02*
X186601905Y-81108628D01*
X187554286Y-80680057D02*
X187601905Y-80632438D01*
X187601905Y-80632438D02*
X187697143Y-80584819D01*
X187697143Y-80584819D02*
X187935238Y-80584819D01*
X187935238Y-80584819D02*
X188030476Y-80632438D01*
X188030476Y-80632438D02*
X188078095Y-80680057D01*
X188078095Y-80680057D02*
X188125714Y-80775295D01*
X188125714Y-80775295D02*
X188125714Y-80870533D01*
X188125714Y-80870533D02*
X188078095Y-81013390D01*
X188078095Y-81013390D02*
X187506667Y-81584819D01*
X187506667Y-81584819D02*
X188125714Y-81584819D01*
X181690476Y-68954819D02*
X181690476Y-67954819D01*
X181690476Y-67954819D02*
X182023809Y-68669104D01*
X182023809Y-68669104D02*
X182357142Y-67954819D01*
X182357142Y-67954819D02*
X182357142Y-68954819D01*
X183357142Y-68954819D02*
X182785714Y-68954819D01*
X183071428Y-68954819D02*
X183071428Y-67954819D01*
X183071428Y-67954819D02*
X182976190Y-68097676D01*
X182976190Y-68097676D02*
X182880952Y-68192914D01*
X182880952Y-68192914D02*
X182785714Y-68240533D01*
X252904666Y-60117619D02*
X252904666Y-60831904D01*
X252904666Y-60831904D02*
X252857047Y-60974761D01*
X252857047Y-60974761D02*
X252761809Y-61070000D01*
X252761809Y-61070000D02*
X252618952Y-61117619D01*
X252618952Y-61117619D02*
X252523714Y-61117619D01*
X253333238Y-60212857D02*
X253380857Y-60165238D01*
X253380857Y-60165238D02*
X253476095Y-60117619D01*
X253476095Y-60117619D02*
X253714190Y-60117619D01*
X253714190Y-60117619D02*
X253809428Y-60165238D01*
X253809428Y-60165238D02*
X253857047Y-60212857D01*
X253857047Y-60212857D02*
X253904666Y-60308095D01*
X253904666Y-60308095D02*
X253904666Y-60403333D01*
X253904666Y-60403333D02*
X253857047Y-60546190D01*
X253857047Y-60546190D02*
X253285619Y-61117619D01*
X253285619Y-61117619D02*
X253904666Y-61117619D01*
%TO.C,R1*%
D11*
X183300000Y-79000000D02*
X184070000Y-79000000D01*
X191380000Y-79000000D02*
X190610000Y-79000000D01*
X184070000Y-77630000D02*
X190610000Y-77630000D01*
X190610000Y-80370000D01*
X184070000Y-80370000D01*
X184070000Y-77630000D01*
%TO.C,J4*%
X210880000Y-62080000D02*
X212260000Y-62080000D01*
X210880000Y-63460000D02*
X210880000Y-62080000D01*
X210880000Y-64730000D02*
X210880000Y-113100000D01*
X210880000Y-64730000D02*
X213640000Y-64730000D01*
X210880000Y-113100000D02*
X213640000Y-113100000D01*
X213640000Y-64730000D02*
X213640000Y-113100000D01*
%TO.C,SW4*%
X237648800Y-105081200D02*
X237648800Y-106581200D01*
X238898800Y-109081200D02*
X243398800Y-109081200D01*
X243398800Y-102581200D02*
X238898800Y-102581200D01*
X244648800Y-106581200D02*
X244648800Y-105081200D01*
%TO.C,R3*%
X182960000Y-88000000D02*
X183730000Y-88000000D01*
X191040000Y-88000000D02*
X190270000Y-88000000D01*
X183730000Y-86630000D02*
X190270000Y-86630000D01*
X190270000Y-89370000D01*
X183730000Y-89370000D01*
X183730000Y-86630000D01*
%TO.C,R5*%
X186547500Y-97500000D02*
X187317500Y-97500000D01*
X194627500Y-97500000D02*
X193857500Y-97500000D01*
X187317500Y-96130000D02*
X193857500Y-96130000D01*
X193857500Y-98870000D01*
X187317500Y-98870000D01*
X187317500Y-96130000D01*
%TO.C,C2*%
X187945225Y-103525000D02*
X188445225Y-103525000D01*
X188195225Y-103275000D02*
X188195225Y-103775000D01*
X190750000Y-102420000D02*
X190750000Y-107580000D01*
X190790000Y-102420000D02*
X190790000Y-107580000D01*
X190830000Y-102421000D02*
X190830000Y-107579000D01*
X190870000Y-102423000D02*
X190870000Y-107577000D01*
X190910000Y-102425000D02*
X190910000Y-107575000D01*
X190950000Y-102428000D02*
X190950000Y-107572000D01*
X190990000Y-102431000D02*
X190990000Y-103960000D01*
X190990000Y-106040000D02*
X190990000Y-107569000D01*
X191030000Y-102435000D02*
X191030000Y-103960000D01*
X191030000Y-106040000D02*
X191030000Y-107565000D01*
X191070000Y-102440000D02*
X191070000Y-103960000D01*
X191070000Y-106040000D02*
X191070000Y-107560000D01*
X191110000Y-102445000D02*
X191110000Y-103960000D01*
X191110000Y-106040000D02*
X191110000Y-107555000D01*
X191150000Y-102451000D02*
X191150000Y-103960000D01*
X191150000Y-106040000D02*
X191150000Y-107549000D01*
X191190000Y-102457000D02*
X191190000Y-103960000D01*
X191190000Y-106040000D02*
X191190000Y-107543000D01*
X191230000Y-102464000D02*
X191230000Y-103960000D01*
X191230000Y-106040000D02*
X191230000Y-107536000D01*
X191270000Y-102472000D02*
X191270000Y-103960000D01*
X191270000Y-106040000D02*
X191270000Y-107528000D01*
X191310000Y-102481000D02*
X191310000Y-103960000D01*
X191310000Y-106040000D02*
X191310000Y-107519000D01*
X191350000Y-102490000D02*
X191350000Y-103960000D01*
X191350000Y-106040000D02*
X191350000Y-107510000D01*
X191390000Y-102499000D02*
X191390000Y-103960000D01*
X191390000Y-106040000D02*
X191390000Y-107501000D01*
X191430000Y-102510000D02*
X191430000Y-103960000D01*
X191430000Y-106040000D02*
X191430000Y-107490000D01*
X191470000Y-102521000D02*
X191470000Y-103960000D01*
X191470000Y-106040000D02*
X191470000Y-107479000D01*
X191510000Y-102533000D02*
X191510000Y-103960000D01*
X191510000Y-106040000D02*
X191510000Y-107467000D01*
X191550000Y-102545000D02*
X191550000Y-103960000D01*
X191550000Y-106040000D02*
X191550000Y-107455000D01*
X191590000Y-102558000D02*
X191590000Y-103960000D01*
X191590000Y-106040000D02*
X191590000Y-107442000D01*
X191630000Y-102572000D02*
X191630000Y-103960000D01*
X191630000Y-106040000D02*
X191630000Y-107428000D01*
X191670000Y-102587000D02*
X191670000Y-103960000D01*
X191670000Y-106040000D02*
X191670000Y-107413000D01*
X191710000Y-102602000D02*
X191710000Y-103960000D01*
X191710000Y-106040000D02*
X191710000Y-107398000D01*
X191750000Y-102618000D02*
X191750000Y-103960000D01*
X191750000Y-106040000D02*
X191750000Y-107382000D01*
X191790000Y-102635000D02*
X191790000Y-103960000D01*
X191790000Y-106040000D02*
X191790000Y-107365000D01*
X191830000Y-102653000D02*
X191830000Y-103960000D01*
X191830000Y-106040000D02*
X191830000Y-107347000D01*
X191870000Y-102671000D02*
X191870000Y-103960000D01*
X191870000Y-106040000D02*
X191870000Y-107329000D01*
X191910000Y-102691000D02*
X191910000Y-103960000D01*
X191910000Y-106040000D02*
X191910000Y-107309000D01*
X191950000Y-102711000D02*
X191950000Y-103960000D01*
X191950000Y-106040000D02*
X191950000Y-107289000D01*
X191990000Y-102732000D02*
X191990000Y-103960000D01*
X191990000Y-106040000D02*
X191990000Y-107268000D01*
X192030000Y-102754000D02*
X192030000Y-103960000D01*
X192030000Y-106040000D02*
X192030000Y-107246000D01*
X192070000Y-102777000D02*
X192070000Y-103960000D01*
X192070000Y-106040000D02*
X192070000Y-107223000D01*
X192110000Y-102801000D02*
X192110000Y-103960000D01*
X192110000Y-106040000D02*
X192110000Y-107199000D01*
X192150000Y-102825000D02*
X192150000Y-103960000D01*
X192150000Y-106040000D02*
X192150000Y-107175000D01*
X192190000Y-102851000D02*
X192190000Y-103960000D01*
X192190000Y-106040000D02*
X192190000Y-107149000D01*
X192230000Y-102878000D02*
X192230000Y-103960000D01*
X192230000Y-106040000D02*
X192230000Y-107122000D01*
X192270000Y-102906000D02*
X192270000Y-103960000D01*
X192270000Y-106040000D02*
X192270000Y-107094000D01*
X192310000Y-102935000D02*
X192310000Y-103960000D01*
X192310000Y-106040000D02*
X192310000Y-107065000D01*
X192350000Y-102965000D02*
X192350000Y-103960000D01*
X192350000Y-106040000D02*
X192350000Y-107035000D01*
X192390000Y-102997000D02*
X192390000Y-103960000D01*
X192390000Y-106040000D02*
X192390000Y-107003000D01*
X192430000Y-103030000D02*
X192430000Y-103960000D01*
X192430000Y-106040000D02*
X192430000Y-106970000D01*
X192470000Y-103064000D02*
X192470000Y-103960000D01*
X192470000Y-106040000D02*
X192470000Y-106936000D01*
X192510000Y-103099000D02*
X192510000Y-103960000D01*
X192510000Y-106040000D02*
X192510000Y-106901000D01*
X192550000Y-103136000D02*
X192550000Y-103960000D01*
X192550000Y-106040000D02*
X192550000Y-106864000D01*
X192590000Y-103175000D02*
X192590000Y-103960000D01*
X192590000Y-106040000D02*
X192590000Y-106825000D01*
X192630000Y-103215000D02*
X192630000Y-103960000D01*
X192630000Y-106040000D02*
X192630000Y-106785000D01*
X192670000Y-103257000D02*
X192670000Y-103960000D01*
X192670000Y-106040000D02*
X192670000Y-106743000D01*
X192710000Y-103301000D02*
X192710000Y-103960000D01*
X192710000Y-106040000D02*
X192710000Y-106699000D01*
X192750000Y-103348000D02*
X192750000Y-103960000D01*
X192750000Y-106040000D02*
X192750000Y-106652000D01*
X192790000Y-103396000D02*
X192790000Y-103960000D01*
X192790000Y-106040000D02*
X192790000Y-106604000D01*
X192830000Y-103447000D02*
X192830000Y-103960000D01*
X192830000Y-106040000D02*
X192830000Y-106553000D01*
X192870000Y-103501000D02*
X192870000Y-103960000D01*
X192870000Y-106040000D02*
X192870000Y-106499000D01*
X192910000Y-103557000D02*
X192910000Y-103960000D01*
X192910000Y-106040000D02*
X192910000Y-106443000D01*
X192950000Y-103617000D02*
X192950000Y-103960000D01*
X192950000Y-106040000D02*
X192950000Y-106383000D01*
X192990000Y-103681000D02*
X192990000Y-103960000D01*
X192990000Y-106040000D02*
X192990000Y-106319000D01*
X193030000Y-103749000D02*
X193030000Y-103960000D01*
X193030000Y-106040000D02*
X193030000Y-106251000D01*
X193070000Y-103823000D02*
X193070000Y-106177000D01*
X193110000Y-103902000D02*
X193110000Y-106098000D01*
X193150000Y-103989000D02*
X193150000Y-106011000D01*
X193190000Y-104086000D02*
X193190000Y-105914000D01*
X193230000Y-104195000D02*
X193230000Y-105805000D01*
X193270000Y-104323000D02*
X193270000Y-105677000D01*
X193310000Y-104483000D02*
X193310000Y-105517000D01*
X193350000Y-104717000D02*
X193350000Y-105283000D01*
X193370000Y-105000000D02*
G75*
G02*
X188130000Y-105000000I-2620000J0D01*
G01*
X188130000Y-105000000D02*
G75*
G02*
X193370000Y-105000000I2620000J0D01*
G01*
%TO.C,Q2*%
X204620000Y-96850000D02*
X208220000Y-96850000D01*
X204063600Y-93901193D02*
G75*
G02*
X206420000Y-92400000I2356400J-1098807D01*
G01*
X204620000Y-96850000D02*
G75*
G02*
X204095816Y-96122795I1800000J1850000D01*
G01*
X206420000Y-92400000D02*
G75*
G02*
X208776400Y-93901193I0J-2600000D01*
G01*
X208744184Y-96122795D02*
G75*
G02*
X208220000Y-96850000I-2324184J1122795D01*
G01*
%TO.C,C4*%
X197380000Y-105130000D02*
X202620000Y-105130000D01*
X197380000Y-105467000D02*
X197380000Y-105130000D01*
X197380000Y-107870000D02*
X197380000Y-107533000D01*
X202620000Y-105130000D02*
X202620000Y-105467000D01*
X202620000Y-107533000D02*
X202620000Y-107870000D01*
X202620000Y-107870000D02*
X197380000Y-107870000D01*
%TO.C,C5*%
X196945225Y-111025000D02*
X197445225Y-111025000D01*
X197195225Y-110775000D02*
X197195225Y-111275000D01*
X199750000Y-109920000D02*
X199750000Y-115080000D01*
X199790000Y-109920000D02*
X199790000Y-115080000D01*
X199830000Y-109921000D02*
X199830000Y-115079000D01*
X199870000Y-109923000D02*
X199870000Y-115077000D01*
X199910000Y-109925000D02*
X199910000Y-115075000D01*
X199950000Y-109928000D02*
X199950000Y-115072000D01*
X199990000Y-109931000D02*
X199990000Y-111460000D01*
X199990000Y-113540000D02*
X199990000Y-115069000D01*
X200030000Y-109935000D02*
X200030000Y-111460000D01*
X200030000Y-113540000D02*
X200030000Y-115065000D01*
X200070000Y-109940000D02*
X200070000Y-111460000D01*
X200070000Y-113540000D02*
X200070000Y-115060000D01*
X200110000Y-109945000D02*
X200110000Y-111460000D01*
X200110000Y-113540000D02*
X200110000Y-115055000D01*
X200150000Y-109951000D02*
X200150000Y-111460000D01*
X200150000Y-113540000D02*
X200150000Y-115049000D01*
X200190000Y-109957000D02*
X200190000Y-111460000D01*
X200190000Y-113540000D02*
X200190000Y-115043000D01*
X200230000Y-109964000D02*
X200230000Y-111460000D01*
X200230000Y-113540000D02*
X200230000Y-115036000D01*
X200270000Y-109972000D02*
X200270000Y-111460000D01*
X200270000Y-113540000D02*
X200270000Y-115028000D01*
X200310000Y-109981000D02*
X200310000Y-111460000D01*
X200310000Y-113540000D02*
X200310000Y-115019000D01*
X200350000Y-109990000D02*
X200350000Y-111460000D01*
X200350000Y-113540000D02*
X200350000Y-115010000D01*
X200390000Y-109999000D02*
X200390000Y-111460000D01*
X200390000Y-113540000D02*
X200390000Y-115001000D01*
X200430000Y-110010000D02*
X200430000Y-111460000D01*
X200430000Y-113540000D02*
X200430000Y-114990000D01*
X200470000Y-110021000D02*
X200470000Y-111460000D01*
X200470000Y-113540000D02*
X200470000Y-114979000D01*
X200510000Y-110033000D02*
X200510000Y-111460000D01*
X200510000Y-113540000D02*
X200510000Y-114967000D01*
X200550000Y-110045000D02*
X200550000Y-111460000D01*
X200550000Y-113540000D02*
X200550000Y-114955000D01*
X200590000Y-110058000D02*
X200590000Y-111460000D01*
X200590000Y-113540000D02*
X200590000Y-114942000D01*
X200630000Y-110072000D02*
X200630000Y-111460000D01*
X200630000Y-113540000D02*
X200630000Y-114928000D01*
X200670000Y-110087000D02*
X200670000Y-111460000D01*
X200670000Y-113540000D02*
X200670000Y-114913000D01*
X200710000Y-110102000D02*
X200710000Y-111460000D01*
X200710000Y-113540000D02*
X200710000Y-114898000D01*
X200750000Y-110118000D02*
X200750000Y-111460000D01*
X200750000Y-113540000D02*
X200750000Y-114882000D01*
X200790000Y-110135000D02*
X200790000Y-111460000D01*
X200790000Y-113540000D02*
X200790000Y-114865000D01*
X200830000Y-110153000D02*
X200830000Y-111460000D01*
X200830000Y-113540000D02*
X200830000Y-114847000D01*
X200870000Y-110171000D02*
X200870000Y-111460000D01*
X200870000Y-113540000D02*
X200870000Y-114829000D01*
X200910000Y-110191000D02*
X200910000Y-111460000D01*
X200910000Y-113540000D02*
X200910000Y-114809000D01*
X200950000Y-110211000D02*
X200950000Y-111460000D01*
X200950000Y-113540000D02*
X200950000Y-114789000D01*
X200990000Y-110232000D02*
X200990000Y-111460000D01*
X200990000Y-113540000D02*
X200990000Y-114768000D01*
X201030000Y-110254000D02*
X201030000Y-111460000D01*
X201030000Y-113540000D02*
X201030000Y-114746000D01*
X201070000Y-110277000D02*
X201070000Y-111460000D01*
X201070000Y-113540000D02*
X201070000Y-114723000D01*
X201110000Y-110301000D02*
X201110000Y-111460000D01*
X201110000Y-113540000D02*
X201110000Y-114699000D01*
X201150000Y-110325000D02*
X201150000Y-111460000D01*
X201150000Y-113540000D02*
X201150000Y-114675000D01*
X201190000Y-110351000D02*
X201190000Y-111460000D01*
X201190000Y-113540000D02*
X201190000Y-114649000D01*
X201230000Y-110378000D02*
X201230000Y-111460000D01*
X201230000Y-113540000D02*
X201230000Y-114622000D01*
X201270000Y-110406000D02*
X201270000Y-111460000D01*
X201270000Y-113540000D02*
X201270000Y-114594000D01*
X201310000Y-110435000D02*
X201310000Y-111460000D01*
X201310000Y-113540000D02*
X201310000Y-114565000D01*
X201350000Y-110465000D02*
X201350000Y-111460000D01*
X201350000Y-113540000D02*
X201350000Y-114535000D01*
X201390000Y-110497000D02*
X201390000Y-111460000D01*
X201390000Y-113540000D02*
X201390000Y-114503000D01*
X201430000Y-110530000D02*
X201430000Y-111460000D01*
X201430000Y-113540000D02*
X201430000Y-114470000D01*
X201470000Y-110564000D02*
X201470000Y-111460000D01*
X201470000Y-113540000D02*
X201470000Y-114436000D01*
X201510000Y-110599000D02*
X201510000Y-111460000D01*
X201510000Y-113540000D02*
X201510000Y-114401000D01*
X201550000Y-110636000D02*
X201550000Y-111460000D01*
X201550000Y-113540000D02*
X201550000Y-114364000D01*
X201590000Y-110675000D02*
X201590000Y-111460000D01*
X201590000Y-113540000D02*
X201590000Y-114325000D01*
X201630000Y-110715000D02*
X201630000Y-111460000D01*
X201630000Y-113540000D02*
X201630000Y-114285000D01*
X201670000Y-110757000D02*
X201670000Y-111460000D01*
X201670000Y-113540000D02*
X201670000Y-114243000D01*
X201710000Y-110801000D02*
X201710000Y-111460000D01*
X201710000Y-113540000D02*
X201710000Y-114199000D01*
X201750000Y-110848000D02*
X201750000Y-111460000D01*
X201750000Y-113540000D02*
X201750000Y-114152000D01*
X201790000Y-110896000D02*
X201790000Y-111460000D01*
X201790000Y-113540000D02*
X201790000Y-114104000D01*
X201830000Y-110947000D02*
X201830000Y-111460000D01*
X201830000Y-113540000D02*
X201830000Y-114053000D01*
X201870000Y-111001000D02*
X201870000Y-111460000D01*
X201870000Y-113540000D02*
X201870000Y-113999000D01*
X201910000Y-111057000D02*
X201910000Y-111460000D01*
X201910000Y-113540000D02*
X201910000Y-113943000D01*
X201950000Y-111117000D02*
X201950000Y-111460000D01*
X201950000Y-113540000D02*
X201950000Y-113883000D01*
X201990000Y-111181000D02*
X201990000Y-111460000D01*
X201990000Y-113540000D02*
X201990000Y-113819000D01*
X202030000Y-111249000D02*
X202030000Y-111460000D01*
X202030000Y-113540000D02*
X202030000Y-113751000D01*
X202070000Y-111323000D02*
X202070000Y-113677000D01*
X202110000Y-111402000D02*
X202110000Y-113598000D01*
X202150000Y-111489000D02*
X202150000Y-113511000D01*
X202190000Y-111586000D02*
X202190000Y-113414000D01*
X202230000Y-111695000D02*
X202230000Y-113305000D01*
X202270000Y-111823000D02*
X202270000Y-113177000D01*
X202310000Y-111983000D02*
X202310000Y-113017000D01*
X202350000Y-112217000D02*
X202350000Y-112783000D01*
X202370000Y-112500000D02*
G75*
G02*
X197130000Y-112500000I-2620000J0D01*
G01*
X197130000Y-112500000D02*
G75*
G02*
X202370000Y-112500000I2620000J0D01*
G01*
%TO.C,SW2*%
X237648800Y-80058000D02*
X237648800Y-81558000D01*
X238898800Y-84058000D02*
X243398800Y-84058000D01*
X243398800Y-77558000D02*
X238898800Y-77558000D01*
X244648800Y-81558000D02*
X244648800Y-80058000D01*
%TO.C,J1*%
X191270000Y-63175000D02*
X191270000Y-68825000D01*
X194175000Y-71730000D02*
X199825000Y-71730000D01*
X197000000Y-60700000D02*
X196500000Y-61400000D01*
X197000000Y-60700000D02*
X197500000Y-61400000D01*
X199825000Y-60500000D02*
X194175000Y-60500000D01*
X202730000Y-68825000D02*
X202730000Y-63175000D01*
%TO.C,Q1*%
X204620000Y-84350000D02*
X208220000Y-84350000D01*
X204063600Y-81401193D02*
G75*
G02*
X206420000Y-79900000I2356400J-1098807D01*
G01*
X204620000Y-84350000D02*
G75*
G02*
X204095816Y-83622795I1800000J1850000D01*
G01*
X206420000Y-79900000D02*
G75*
G02*
X208776400Y-81401193I0J-2600000D01*
G01*
X208744184Y-83622795D02*
G75*
G02*
X208220000Y-84350000I-2324184J1122795D01*
G01*
%TO.C,C3*%
X197380000Y-100130000D02*
X202620000Y-100130000D01*
X197380000Y-100467000D02*
X197380000Y-100130000D01*
X197380000Y-102870000D02*
X197380000Y-102533000D01*
X202620000Y-100130000D02*
X202620000Y-100467000D01*
X202620000Y-102533000D02*
X202620000Y-102870000D01*
X202620000Y-102870000D02*
X197380000Y-102870000D01*
%TO.C,J5*%
X226120000Y-62080000D02*
X227500000Y-62080000D01*
X226120000Y-63460000D02*
X226120000Y-62080000D01*
X226120000Y-64730000D02*
X226120000Y-113100000D01*
X226120000Y-64730000D02*
X228880000Y-64730000D01*
X226120000Y-113100000D02*
X228880000Y-113100000D01*
X228880000Y-64730000D02*
X228880000Y-113100000D01*
%TO.C,R4*%
X182880000Y-92000000D02*
X183650000Y-92000000D01*
X190960000Y-92000000D02*
X190190000Y-92000000D01*
X183650000Y-90630000D02*
X190190000Y-90630000D01*
X190190000Y-93370000D01*
X183650000Y-93370000D01*
X183650000Y-90630000D01*
%TO.C,C1*%
X196800000Y-87130000D02*
X202040000Y-87130000D01*
X196800000Y-87467000D02*
X196800000Y-87130000D01*
X196800000Y-89870000D02*
X196800000Y-89533000D01*
X202040000Y-87130000D02*
X202040000Y-87467000D01*
X202040000Y-89533000D02*
X202040000Y-89870000D01*
X202040000Y-89870000D02*
X196800000Y-89870000D01*
%TO.C,SW3*%
X237648800Y-92351600D02*
X237648800Y-93851600D01*
X238898800Y-96351600D02*
X243398800Y-96351600D01*
X243398800Y-89851600D02*
X238898800Y-89851600D01*
X244648800Y-93851600D02*
X244648800Y-92351600D01*
%TO.C,SW1*%
X237648800Y-66900800D02*
X237648800Y-68400800D01*
X238898800Y-70900800D02*
X243398800Y-70900800D01*
X243398800Y-64400800D02*
X238898800Y-64400800D01*
X244648800Y-68400800D02*
X244648800Y-66900800D01*
%TO.C,R2*%
X183300000Y-83500000D02*
X184070000Y-83500000D01*
X191380000Y-83500000D02*
X190610000Y-83500000D01*
X184070000Y-82130000D02*
X190610000Y-82130000D01*
X190610000Y-84870000D01*
X184070000Y-84870000D01*
X184070000Y-82130000D01*
%TO.C,J2*%
X251858000Y-61662800D02*
X253238000Y-61662800D01*
X251858000Y-63042800D02*
X251858000Y-61662800D01*
X251858000Y-64312800D02*
X251858000Y-82202800D01*
X251858000Y-64312800D02*
X254618000Y-64312800D01*
X251858000Y-82202800D02*
X254618000Y-82202800D01*
X254618000Y-64312800D02*
X254618000Y-82202800D01*
%TD*%
M02*
