%TF.GenerationSoftware,KiCad,Pcbnew,10.0.3*%
%TF.CreationDate,2026-05-24T12:16:12+03:00*%
%TF.ProjectId,DSO_Final,44534f5f-4669-46e6-916c-2e6b69636164,rev?*%
%TF.SameCoordinates,Original*%
%TF.FileFunction,Soldermask,Top*%
%TF.FilePolarity,Negative*%
%FSLAX46Y46*%
G04 Gerber Fmt 4.6, Leading zero omitted, Abs format (unit mm)*
G04 Created by KiCad (PCBNEW 10.0.3) date 2026-05-24 12:16:12*
%MOMM*%
%LPD*%
G01*
G04 APERTURE LIST*
G04 Aperture macros list*
%AMRoundRect*
0 Rectangle with rounded corners*
0 $1 Rounding radius*
0 $2 $3 $4 $5 $6 $7 $8 $9 X,Y pos of 4 corners*
0 Add a 4 corners polygon primitive as box body*
4,1,4,$2,$3,$4,$5,$6,$7,$8,$9,$2,$3,0*
0 Add four circle primitives for the rounded corners*
1,1,$1+$1,$2,$3*
1,1,$1+$1,$4,$5*
1,1,$1+$1,$6,$7*
1,1,$1+$1,$8,$9*
0 Add four rect primitives between the rounded corners*
20,1,$1+$1,$2,$3,$4,$5,0*
20,1,$1+$1,$4,$5,$6,$7,0*
20,1,$1+$1,$6,$7,$8,$9,0*
20,1,$1+$1,$8,$9,$2,$3,0*%
G04 Aperture macros list end*
%ADD10C,1.600000*%
%ADD11R,1.700000X1.700000*%
%ADD12C,1.700000*%
%ADD13C,2.000000*%
%ADD14RoundRect,0.250000X-0.550000X-0.550000X0.550000X-0.550000X0.550000X0.550000X-0.550000X0.550000X0*%
%ADD15R,1.500000X1.500000*%
%ADD16C,1.500000*%
%ADD17R,3.500000X3.500000*%
%ADD18C,4.000000*%
%ADD19C,3.200000*%
G04 APERTURE END LIST*
D10*
%TO.C,R1*%
X182260000Y-79000000D03*
X192420000Y-79000000D03*
%TD*%
D11*
%TO.C,J4*%
X212260000Y-63460000D03*
D12*
X212260000Y-66000000D03*
X212260000Y-68540000D03*
X212260000Y-71080000D03*
X212260000Y-73620000D03*
X212260000Y-76160000D03*
X212260000Y-78700000D03*
X212260000Y-81240000D03*
X212260000Y-83780000D03*
X212260000Y-86320000D03*
X212260000Y-88860000D03*
X212260000Y-91400000D03*
X212260000Y-93940000D03*
X212260000Y-96480000D03*
X212260000Y-99020000D03*
X212260000Y-101560000D03*
X212260000Y-104100000D03*
X212260000Y-106640000D03*
X212260000Y-109180000D03*
X212260000Y-111720000D03*
%TD*%
D13*
%TO.C,SW4*%
X237898800Y-103581200D03*
X244398800Y-103581200D03*
X237898800Y-108081200D03*
X244398800Y-108081200D03*
%TD*%
D10*
%TO.C,R3*%
X181920000Y-88000000D03*
X192080000Y-88000000D03*
%TD*%
%TO.C,R5*%
X185507500Y-97500000D03*
X195667500Y-97500000D03*
%TD*%
D14*
%TO.C,C2*%
X189500000Y-105000000D03*
D10*
X192000000Y-105000000D03*
%TD*%
D15*
%TO.C,Q2*%
X203880000Y-95000000D03*
D16*
X206420000Y-95000000D03*
X208960000Y-95000000D03*
%TD*%
D10*
%TO.C,C4*%
X197500000Y-106500000D03*
X202500000Y-106500000D03*
%TD*%
D14*
%TO.C,C5*%
X198500000Y-112500000D03*
D10*
X201000000Y-112500000D03*
%TD*%
D13*
%TO.C,SW2*%
X237898800Y-78558000D03*
X244398800Y-78558000D03*
X237898800Y-83058000D03*
X244398800Y-83058000D03*
%TD*%
D17*
%TO.C,J1*%
X197000000Y-66000000D03*
D18*
X191975000Y-60975000D03*
X191975000Y-71025000D03*
X202025000Y-60975000D03*
X202025000Y-71025000D03*
%TD*%
D19*
%TO.C,M3*%
X261500000Y-113500000D03*
%TD*%
%TO.C,M2*%
X261500000Y-62500000D03*
%TD*%
D15*
%TO.C,Q1*%
X203880000Y-82500000D03*
D16*
X206420000Y-82500000D03*
X208960000Y-82500000D03*
%TD*%
D10*
%TO.C,C3*%
X197500000Y-101500000D03*
X202500000Y-101500000D03*
%TD*%
D11*
%TO.C,J5*%
X227500000Y-63460000D03*
D12*
X227500000Y-66000000D03*
X227500000Y-68540000D03*
X227500000Y-71080000D03*
X227500000Y-73620000D03*
X227500000Y-76160000D03*
X227500000Y-78700000D03*
X227500000Y-81240000D03*
X227500000Y-83780000D03*
X227500000Y-86320000D03*
X227500000Y-88860000D03*
X227500000Y-91400000D03*
X227500000Y-93940000D03*
X227500000Y-96480000D03*
X227500000Y-99020000D03*
X227500000Y-101560000D03*
X227500000Y-104100000D03*
X227500000Y-106640000D03*
X227500000Y-109180000D03*
X227500000Y-111720000D03*
%TD*%
D10*
%TO.C,R4*%
X192000000Y-92000000D03*
X181840000Y-92000000D03*
%TD*%
%TO.C,C1*%
X196920000Y-88500000D03*
X201920000Y-88500000D03*
%TD*%
D13*
%TO.C,SW3*%
X237898800Y-90851600D03*
X244398800Y-90851600D03*
X237898800Y-95351600D03*
X244398800Y-95351600D03*
%TD*%
D19*
%TO.C,M4*%
X182500000Y-113500000D03*
%TD*%
D13*
%TO.C,SW1*%
X237898800Y-65400800D03*
X244398800Y-65400800D03*
X237898800Y-69900800D03*
X244398800Y-69900800D03*
%TD*%
D10*
%TO.C,R2*%
X182260000Y-83500000D03*
X192420000Y-83500000D03*
%TD*%
D19*
%TO.C,M1*%
X182500000Y-62500000D03*
%TD*%
D11*
%TO.C,J2*%
X253238000Y-63042800D03*
D12*
X253238000Y-65582800D03*
X253238000Y-68122800D03*
X253238000Y-70662800D03*
X253238000Y-73202800D03*
X253238000Y-75742800D03*
X253238000Y-78282800D03*
X253238000Y-80822800D03*
%TD*%
M02*
