M48
; DRILL file KiCad 10.0.3 date 2026-05-24T12:16:19
; FORMAT={-:-/ absolute / metric / decimal}
; #@! TF.CreationDate,2026-05-24T12:16:19+03:00
; #@! TF.GenerationSoftware,Kicad,Pcbnew,10.0.3
; #@! TF.FileFunction,Plated,1,2,PTH
FMAT,2
METRIC
; #@! TA.AperFunction,Plated,PTH,ViaDrill
T1C0.600
; #@! TA.AperFunction,Plated,PTH,ComponentDrill
T2C0.800
; #@! TA.AperFunction,Plated,PTH,ComponentDrill
T3C1.000
; #@! TA.AperFunction,Plated,PTH,ComponentDrill
T4C1.100
; #@! TA.AperFunction,Plated,PTH,ComponentDrill
T5C1.500
%
G90
G05
T1
X182.26Y-76.5
X188.5Y-67.5
X215.0Y-81.0
X215.5Y-104.5
X216.0Y-74.0
X216.0Y-86.5
X217.0Y-79.5
X217.0Y-106.5
X218.2Y-82.331
X221.0Y-77.5
X223.0Y-111.5
X248.5Y-65.0
X248.5Y-69.0
X249.5Y-72.0
X250.5Y-74.0
X250.5Y-112.5
T2
X181.84Y-92.0
X181.92Y-88.0
X182.26Y-79.0
X182.26Y-83.5
X185.507Y-97.5
X189.5Y-105.0
X192.0Y-92.0
X192.0Y-105.0
X192.08Y-88.0
X192.42Y-79.0
X192.42Y-83.5
X195.667Y-97.5
X196.92Y-88.5
X197.5Y-101.5
X197.5Y-106.5
X198.5Y-112.5
X201.0Y-112.5
X201.92Y-88.5
X202.5Y-101.5
X202.5Y-106.5
X203.88Y-82.5
X203.88Y-95.0
X206.42Y-82.5
X206.42Y-95.0
X208.96Y-82.5
X208.96Y-95.0
T3
X212.26Y-63.46
X212.26Y-66.0
X212.26Y-68.54
X212.26Y-71.08
X212.26Y-73.62
X212.26Y-76.16
X212.26Y-78.7
X212.26Y-81.24
X212.26Y-83.78
X212.26Y-86.32
X212.26Y-88.86
X212.26Y-91.4
X212.26Y-93.94
X212.26Y-96.48
X212.26Y-99.02
X212.26Y-101.56
X212.26Y-104.1
X212.26Y-106.64
X212.26Y-109.18
X212.26Y-111.72
X227.5Y-63.46
X227.5Y-66.0
X227.5Y-68.54
X227.5Y-71.08
X227.5Y-73.62
X227.5Y-76.16
X227.5Y-78.7
X227.5Y-81.24
X227.5Y-83.78
X227.5Y-86.32
X227.5Y-88.86
X227.5Y-91.4
X227.5Y-93.94
X227.5Y-96.48
X227.5Y-99.02
X227.5Y-101.56
X227.5Y-104.1
X227.5Y-106.64
X227.5Y-109.18
X227.5Y-111.72
X253.238Y-63.043
X253.238Y-65.583
X253.238Y-68.123
X253.238Y-70.663
X253.238Y-73.203
X253.238Y-75.743
X253.238Y-78.283
X253.238Y-80.823
T4
X197.0Y-66.0
X237.899Y-65.401
X237.899Y-69.901
X237.899Y-78.558
X237.899Y-83.058
X237.899Y-90.852
X237.899Y-95.352
X237.899Y-103.581
X237.899Y-108.081
X244.399Y-65.401
X244.399Y-69.901
X244.399Y-78.558
X244.399Y-83.058
X244.399Y-90.852
X244.399Y-95.352
X244.399Y-103.581
X244.399Y-108.081
T5
X191.975Y-60.975
X191.975Y-71.025
X202.025Y-60.975
X202.025Y-71.025
M30
